<svg xmlns="http://www.w3.org/2000/svg" width="24" height="24" viewBox="0 0 24 24" fill="none" stroke="currentColor" stroke-width="2" stroke-linecap="round" stroke-linejoin="round"><path d="M12 13c-2.4 0 -5 2.4 -5 4.5c0 1.5 1.2 2.5 2.7 2.5c.8 0 1.5 -.4 2.3 -.4s1.5 .4 2.3 .4c1.5 0 2.7 -1 2.7 -2.5c0 -2.1 -2.6 -4.5 -5 -4.5z"/><path d="M6.5 11a2 2.5 0 1 0 0 -5a2 2.5 0 0 0 0 5"/><path d="M17.5 11a2 2.5 0 1 0 0 -5a2 2.5 0 0 0 0 5"/><path d="M10 7a2 2.5 0 1 0 0 -5a2 2.5 0 0 0 0 5"/><path d="M14 7a2 2.5 0 1 0 0 -5a2 2.5 0 0 0 0 5"/></svg>
